<svg width="36" height="32" viewBox="0 0 36 32" fill="none" xmlns="http://www.w3.org/2000/svg">
<path d="M6.41884 9.71628C6.98057 9.15455 6.78004 8.0871 5.97805 7.28511C5.17605 6.48312 4.10082 6.29249 3.54793 6.84537C2.99505 7.39826 3.18673 8.47455 3.98767 9.27549C4.78861 10.0764 5.85711 10.278 6.41884 9.71628ZM9.23854 6.89658C9.80026 6.33485 9.59974 5.26741 8.79774 4.46541C7.99575 3.66342 6.92051 3.47279 6.36763 4.02568C5.81475 4.57856 6.00643 5.65485 6.80737 6.45579C7.60831 7.25672 8.67681 7.45831 9.23854 6.89658ZM12.2165 3.76854C11.8509 3.5002 11.4644 3.43442 11.1208 3.57514C10.7772 3.71587 10.5363 4.04553 10.4417 4.49939C10.3592 4.95865 10.4036 5.42603 10.5699 5.85053C10.9428 6.84706 11.7622 7.40552 12.446 7.12955C12.5665 7.07992 12.6765 7.006 12.7686 6.91257C12.9545 6.71496 13.0788 6.46841 13.1251 6.2053C13.2075 5.74604 13.1631 5.2787 12.997 4.85416C12.8453 4.42261 12.5752 4.04689 12.2165 3.76854V3.76854ZM5.37913 11.054C4.95463 10.8876 4.48724 10.8433 4.02799 10.9258C3.57413 11.0204 3.24552 11.2624 3.10374 11.6049C2.96196 11.9474 3.02775 12.3339 3.2908 12.6943C3.56882 13.0556 3.94535 13.3281 4.37843 13.4811C4.80298 13.6473 5.27032 13.6916 5.72957 13.6093C5.99268 13.563 6.23924 13.4387 6.43685 13.2528C6.53028 13.1606 6.60419 13.0507 6.65382 12.9302C6.93834 12.2505 6.37566 11.4268 5.37913 11.054ZM10.6818 8.29782C10.6511 8.3253 10.6219 8.35447 10.5944 8.38517C10.5831 8.40058 10.5669 8.41182 10.5486 8.41696C10.5304 8.4221 10.5112 8.42084 10.4944 8.41338C9.5825 7.97698 8.67215 8.04413 8.11927 8.59701C7.56638 9.14989 7.50029 10.0613 7.93986 10.9763C7.94703 10.9932 7.94815 11.0123 7.94303 11.0305C7.9379 11.0487 7.92684 11.0649 7.91166 11.0764C7.88096 11.1039 7.85179 11.1331 7.8243 11.1638C7.22608 11.762 7.33439 12.8456 8.0677 13.5789C8.80101 14.3122 9.88566 14.4216 10.4839 13.8233C10.7095 13.5931 10.8457 13.2913 10.8662 12.9761C11.0789 12.9841 11.2928 12.9468 11.494 12.8666C11.6952 12.7864 11.8789 12.6652 12.0332 12.511C12.1875 12.3567 12.3087 12.1729 12.3889 11.9717C12.4691 11.7706 12.5064 11.5566 12.4983 11.344C12.8136 11.3234 13.1153 11.1872 13.3456 10.9616C13.9438 10.3634 13.8344 9.27875 13.1011 8.54544C12.3678 7.81213 11.28 7.6996 10.6818 8.29782Z" fill="#FFA493"/>
<path d="M25.419 24.7163C25.9807 24.1546 25.7802 23.0871 24.9782 22.2851C24.1762 21.4831 23.1009 21.2925 22.5481 21.8454C21.9952 22.3983 22.1869 23.4745 22.9878 24.2755C23.7887 25.0764 24.8572 25.278 25.419 24.7163ZM28.2387 21.8966C28.8004 21.3349 28.5999 20.2674 27.7979 19.4654C26.9959 18.6634 25.9206 18.4728 25.3678 19.0257C24.8149 19.5786 25.0066 20.6549 25.8075 21.4558C26.6084 22.2567 27.6769 22.4583 28.2387 21.8966ZM31.2167 18.7685C30.851 18.5002 30.4645 18.4344 30.1209 18.5751C29.7773 18.7159 29.5364 19.0455 29.4418 19.4994C29.3593 19.9586 29.4037 20.426 29.57 20.8505C29.9429 21.8471 30.7623 22.4055 31.4461 22.1295C31.5667 22.0799 31.6766 22.006 31.7688 21.9126C31.9547 21.715 32.0789 21.4684 32.1252 21.2053C32.2076 20.746 32.1632 20.2787 31.9971 19.8542C31.8454 19.4226 31.5753 19.0469 31.2167 18.7685V18.7685ZM24.3793 26.054C23.9547 25.8876 23.4874 25.8433 23.0281 25.9258C22.5743 26.0204 22.2456 26.2624 22.1039 26.6049C21.9621 26.9474 22.0279 27.3339 22.2909 27.6943C22.5689 28.0556 22.9455 28.3281 23.3786 28.4811C23.8031 28.6473 24.2704 28.6916 24.7297 28.6093C24.9928 28.563 25.2394 28.4387 25.437 28.2528C25.5304 28.1606 25.6043 28.0507 25.6539 27.9302C25.9385 27.2505 25.3758 26.4268 24.3793 26.054ZM29.6819 23.2978C29.6512 23.3253 29.622 23.3545 29.5946 23.3852C29.5832 23.4006 29.567 23.4118 29.5488 23.417C29.5305 23.4221 29.5113 23.4208 29.4945 23.4134C28.5826 22.977 27.6723 23.0441 27.1194 23.597C26.5665 24.1499 26.5004 25.0613 26.94 25.9763C26.9472 25.9932 26.9483 26.0123 26.9431 26.0305C26.938 26.0487 26.927 26.0649 26.9118 26.0764C26.8811 26.1039 26.8519 26.1331 26.8244 26.1638C26.2262 26.762 26.3345 27.8456 27.0678 28.5789C27.8011 29.3122 28.8858 29.4216 29.484 28.8233C29.7096 28.5931 29.8458 28.2913 29.8663 27.9761C30.079 27.9841 30.2929 27.9468 30.4941 27.8666C30.6953 27.7864 30.8791 27.6652 31.0333 27.511C31.1876 27.3567 31.3088 27.1729 31.389 26.9717C31.4692 26.7706 31.5065 26.5566 31.4984 26.344C31.8137 26.3234 32.1155 26.1872 32.3457 25.9616C32.9439 25.3634 32.8346 24.2788 32.1013 23.5454C31.3679 22.8121 30.2801 22.6996 29.6819 23.2978Z" fill="#FFA493"/>
</svg>
